<svg xmlns="http://www.w3.org/2000/svg" viewBox="0 0 475 210"><defs><style>.a{fill:#767677;}.b{fill:#4386fa;}.c{opacity:0.1;isolation:isolate;}.d{fill:#fff;}</style></defs><title>integration-tile</title><path class="a" d="M255.65,75H237v5.54h13.26c-.66,7.78-7.13,11.08-13.23,11.08A14.57,14.57,0,0,1,222.36,77.1h0v-.25A14.6,14.6,0,0,1,237,62a14.39,14.39,0,0,1,10,4.06l3.88-4a19.74,19.74,0,0,0-14.06-5.54,20.38,20.38,0,1,0,.29,40.74C248,97.24,256,89.77,256,78.72a16.61,16.61,0,0,0-.34-3.68h0Z"/><path class="a" d="M271,71A12.94,12.94,0,0,0,257.8,83.72h0V84a13.15,13.15,0,0,0,26.31.15C284.11,75.47,277.3,71,271,71h0Zm.07,5.16c3.77,0,7.34,3,7.34,8s-3.56,7.94-7.36,7.94c-4.18,0-7.48-3.35-7.48-8s3.25-7.92,7.49-7.92Z"/><path class="a" d="M299.6,71a12.94,12.94,0,0,0-13.16,12.72h0V84a13.15,13.15,0,0,0,26.31.15c0-8.67-6.82-13.14-13.14-13.14h0Zm.08,5.16c3.77,0,7.34,3,7.34,8s-3.56,7.94-7.36,7.94c-4.18,0-7.48-3.35-7.48-8s3.25-7.92,7.49-7.92Z"/><path class="a" d="M327.68,71c-7,0-12.57,6.16-12.57,13.09a12.92,12.92,0,0,0,12.45,13.11A8.65,8.65,0,0,0,334.74,94v2.59c0,4.52-2.74,7.24-6.88,7.24a7.28,7.28,0,0,1-6.7-4.66l-5,2.08C317.91,105,321.5,109,327.9,109c7,0,12.35-4.41,12.35-13.65V71.8h-5.51V74a9.26,9.26,0,0,0-7.06-3h0Zm.51,5.11c3.45,0,7,2.95,7,8S331.65,92,328.11,92c-3.75,0-7.24-3-7.24-7.88,0-5,3.63-8,7.33-8h0Z"/><path class="a" d="M364.65,71c-6.64,0-12.22,5.28-12.22,13.08A12.67,12.67,0,0,0,365.28,97.2a13.28,13.28,0,0,0,11-5.75l-4.53-3a7.31,7.31,0,0,1-6.39,3.6,6.73,6.73,0,0,1-6.42-4l17.56-7.28-.91-2.13A11.86,11.86,0,0,0,364.67,71h0Zm.23,5a5.23,5.23,0,0,1,4.85,2.8L358,83.72c-.51-3.8,3.09-7.7,6.88-7.7h0Z"/><path class="a" d="M344.06,96.42h5.77V57.83h-5.77Z"/><path class="b" d="M117.79,137.76,99.27,105.68a5.54,5.54,0,0,1,0-5.54l18.52-32.08a5.54,5.54,0,0,1,4.79-2.77h37.06a5.54,5.54,0,0,1,4.77,2.77l18.52,32.08a5.54,5.54,0,0,1,0,5.54l-18.52,32.08a5.54,5.54,0,0,1-4.79,2.77H122.57A5.54,5.54,0,0,1,117.79,137.76Z"/><path class="c" d="M152.67,92.58s5.15,12.35-1.87,19.35S131,114.45,131,114.45,150,133.7,157,140.52h2.64a5.54,5.54,0,0,0,4.79-2.77l12.26-21.23Z"/><path class="d" d="M158.75,117.85l-5.69-5.69a.89.89,0,0,0-.21-.16,15.47,15.47,0,1,0-2.69,2.71.89.89,0,0,0,.15.2L156,120.6a.89.89,0,0,0,1.26,0l0,0,1.49-1.49a.89.89,0,0,0,0-1.26Zm-18.13-3.68a11.64,11.64,0,1,1,11.64-11.64,11.64,11.64,0,0,1-11.64,11.64Z"/><path class="d" d="M133.18,101.91v4.81a8.56,8.56,0,0,0,3.11,3.16v-8Z"/><path class="d" d="M133.18,101.91v4.81a8.56,8.56,0,0,0,3.11,3.16v-8Z"/><path class="d" d="M139,97.92v13a8.58,8.58,0,0,0,3.11,0v-13Z"/><path class="d" d="M139,97.92v13a8.58,8.58,0,0,0,3.11,0v-13Z"/><path class="d" d="M148,106.71v-2.85h-3.11v6A8.56,8.56,0,0,0,148,106.71Z"/><path class="d" d="M148,106.71v-2.85h-3.11v6A8.56,8.56,0,0,0,148,106.71Z"/><path class="a" d="M217.12,145.3V120h9.16a7.37,7.37,0,0,1,5.16,2,6.33,6.33,0,0,1,2.16,4.92,5.34,5.34,0,0,1-3.43,5.27v.14a6.15,6.15,0,0,1,3.11,2.21,5.87,5.87,0,0,1,1.17,3.59,6.67,6.67,0,0,1-2.24,5.16,7.62,7.62,0,0,1-5.41,2h-9.67Zm3.25-22.2v7.74h5.9a3.94,3.94,0,0,0,2.9-1.17,3.76,3.76,0,0,0,.13-5.31l-.1-.1a3.74,3.74,0,0,0-2.79-1.17h-6Zm0,10.79v8.3h6.54a4.17,4.17,0,0,0,4.21-4.12s0,0,0,0a4,4,0,0,0-1.24-2.9,4.22,4.22,0,0,0-3.11-1.24h-6.41Z"/><path class="a" d="M241.77,122a2.29,2.29,0,1,1-.67-1.63A2.22,2.22,0,0,1,241.77,122Zm-.67,6v17.32h-3.25V128h3.25Z"/><path class="a" d="M252.84,153.5a9.68,9.68,0,0,1-2.72-.37,8.81,8.81,0,0,1-2.32-1A7.49,7.49,0,0,1,246,150.5a6.7,6.7,0,0,1-1.13-2l3.08-1.28a4.87,4.87,0,0,0,1.84,2.44,5.15,5.15,0,0,0,3,.92,5.38,5.38,0,0,0,4.14-1.59,6.17,6.17,0,0,0,1.49-4.38V142.9h-.14a6.39,6.39,0,0,1-2.49,2.17,7.46,7.46,0,0,1-3.41.8,7.67,7.67,0,0,1-5.84-2.65,9.59,9.59,0,0,1-2.41-6.56,9.46,9.46,0,0,1,2.4-6.54,7.62,7.62,0,0,1,5.84-2.69,7.45,7.45,0,0,1,3.41.8,6.39,6.39,0,0,1,2.49,2.17h.14V128h3.11v16.58a8.85,8.85,0,0,1-2.37,6.54A8.64,8.64,0,0,1,252.84,153.5Zm.11-10.61a5,5,0,0,0,3.92-1.73,7.18,7.18,0,0,0,0-9,5,5,0,0,0-3.92-1.77,5.07,5.07,0,0,0-3.92,1.77,6.46,6.46,0,0,0-1.59,4.51,6.39,6.39,0,0,0,1.59,4.49,5.07,5.07,0,0,0,3.92,1.76Z"/><path class="a" d="M295.3,145.34,292.74,147,291,144.42a13.72,13.72,0,0,1-6.08,1.45,12.46,12.46,0,0,1-9.26-3.83,13.67,13.67,0,0,1,0-18.81,13.1,13.1,0,0,1,18.53,0,12.78,12.78,0,0,1,3.75,9.37,13.5,13.5,0,0,1-1.15,5.54,13.21,13.21,0,0,1-3.24,4.52Zm-10.36-2.58a9.58,9.58,0,0,0,4.26-1l-3-4.46,2.56-1.73,2.93,4.42a9.74,9.74,0,0,0,2.9-7.35,9.86,9.86,0,0,0-2.79-7.24,9.18,9.18,0,0,0-6.89-2.86,9.29,9.29,0,0,0-6.93,2.86,10.89,10.89,0,0,0,0,14.48A9.29,9.29,0,0,0,284.94,142.76Z"/><path class="a" d="M316.44,145.3h-3.11v-2.4h-.14a5.78,5.78,0,0,1-2.28,2.13,6.54,6.54,0,0,1-3.2.85,6.41,6.41,0,0,1-4.9-1.82,7.22,7.22,0,0,1-1.7-5.18V128h3.25v10.67q.11,4.26,4.26,4.26a4.07,4.07,0,0,0,3.24-1.58,5.7,5.7,0,0,0,1.31-3.77V128h3.25V145.3Z"/><path class="a" d="M328,145.87a8.29,8.29,0,0,1-6.29-2.62,9.24,9.24,0,0,1-2.47-6.61,9.41,9.41,0,0,1,2.42-6.59,8.65,8.65,0,0,1,12.29-.14,9.84,9.84,0,0,1,2.28,7l0,.35H322.56a5.64,5.64,0,0,0,1.7,4.1,5.48,5.48,0,0,0,8.77-1.55l2.9,1.41a8.64,8.64,0,0,1-3.23,3.43A9,9,0,0,1,328,145.87Zm-5.2-11.31h9.93a4.32,4.32,0,0,0-1.47-3,5.14,5.14,0,0,0-3.55-1.18,4.72,4.72,0,0,0-3.16,1.13A5.41,5.41,0,0,0,322.8,134.55Z"/><path class="a" d="M342.43,145.3h-3.25V128h3.11v2.83h.14a4.69,4.69,0,0,1,2-2.35,5.64,5.64,0,0,1,3-1,6.1,6.1,0,0,1,2.4.43l-1,3.15a5.4,5.4,0,0,0-1.91-.25,4.21,4.21,0,0,0-3.2,1.49,5,5,0,0,0-1.36,3.46v9.55Z"/><path class="a" d="M367.85,128l-10.83,25h-3.36l4-8.73L350.54,128h3.54l5.16,12.45h.07l5-12.45h3.51Z"/></svg>