<?xml version="1.0" standalone="no"?>
<!DOCTYPE svg PUBLIC "-//W3C//DTD SVG 20010904//EN"
 "http://www.w3.org/TR/2001/REC-SVG-20010904/DTD/svg10.dtd">
<svg version="1.0" xmlns="http://www.w3.org/2000/svg"
 width="64.000000pt" height="64.000000pt" viewBox="0 0 64.000000 64.000000"
 preserveAspectRatio="xMidYMid meet">
<metadata>
Created by potrace 1.12, written by Peter Selinger 2001-2015
</metadata>
<g transform="translate(0.000000,64.000000) scale(0.100000,-0.100000)"
fill="#000000" stroke="none">
<path d="M245 631 c-92 -24 -173 -90 -215 -176 -34 -72 -34 -198 0 -270 31
-64 91 -124 155 -155 72 -35 198 -35 270 0 64 31 124 91 155 155 35 72 35 198
0 270 -31 64 -92 124 -154 153 -53 25 -160 37 -211 23z m244 -198 c0 -12 -155
-128 -169 -128 -14 0 -169 116 -169 128 -1 4 76 7 169 7 94 0 170 -3 169 -7z
m-282 -72 l31 -23 -20 -37 -20 -36 24 28 c28 32 39 34 63 7 10 -11 26 -20 35
-20 9 0 25 9 35 20 24 27 35 25 63 -7 l24 -28 -20 36 -20 37 31 23 c74 56 67
62 67 -55 l0 -106 -180 0 -180 0 0 106 c0 117 -7 111 67 55z"/>
</g>
</svg>
